<svg viewBox="0 0 19 14" fill="none" xmlns="http://www.w3.org/2000/svg">
<path fill-rule="evenodd" clip-rule="evenodd" d="M11.6667 6.99967C13.5083 6.99967 15 5.50801 15 3.66634C15 1.82467 13.5083 0.333008 11.6667 0.333008C9.825 0.333008 8.33333 1.82467 8.33333 3.66634C8.33333 5.50801 9.825 6.99967 11.6667 6.99967ZM11.6667 1.99967C12.5833 1.99967 13.3333 2.74967 13.3333 3.66634C13.3333 4.58301 12.5833 5.33301 11.6667 5.33301C10.75 5.33301 10 4.58301 10 3.66634C10 2.74967 10.75 1.99967 11.6667 1.99967ZM5 11.9997C5 9.78301 9.44167 8.66634 11.6667 8.66634C13.8917 8.66634 18.3333 9.78301 18.3333 11.9997V13.6663H5V11.9997ZM6.66667 11.9997C6.85 11.3997 9.425 10.333 11.6667 10.333C13.9167 10.333 16.5 11.408 16.6667 11.9997H6.66667ZM4.16667 6.99967V9.49967H2.5V6.99967H0V5.33301H2.5V2.83301H4.16667V5.33301H6.66667V6.99967H4.16667Z" fill="#828282"/>
</svg>
