<svg viewBox="0 0 16 16" fill="none" xmlns="http://www.w3.org/2000/svg">
<path fill-rule="evenodd" clip-rule="evenodd" d="M7 1.83325C7 1.27992 7.44667 0.833252 8 0.833252C8.55333 0.833252 9 1.27992 9 1.83325V2.61325C11.0933 3.06659 12.6667 4.93325 12.6667 7.16659V11.1666L14 12.4999V13.1666H2V12.4999L3.33333 11.1666V7.16659C3.33333 4.93325 4.90667 3.06659 7 2.61325V1.83325ZM8 3.83325C9.84 3.83325 11.3333 5.32659 11.3333 7.16659V11.8333H4.66667V7.16659C4.66667 5.32659 6.16 3.83325 8 3.83325ZM6.67341 13.8399C6.67341 14.5733 7.26675 15.1666 8.00008 15.1666C8.73341 15.1666 9.32675 14.5733 9.32675 13.8399H6.67341Z" fill="#606060"/>
</svg>
