<svg viewBox="0 0 16 22" xmlns="http://www.w3.org/2000/svg">
<mask id="path-1-inside-1" fill="white">
<path fill-rule="evenodd" clip-rule="evenodd" d="M12.7327 15.2534C14.7141 13.7163 16 11.2389 16 8.44444C16 3.78071 12.4183 0 8 0C3.58172 0 0 3.78071 0 8.44444C0 11.2389 1.28594 13.7163 3.26727 15.2534C4.77772 16.4548 6.90879 18.3522 7.38766 21.4102C7.43548 21.7156 7.6909 21.953 8 21.953C8.3091 21.953 8.56452 21.7156 8.61234 21.4102C9.09121 18.3522 11.2223 16.4548 12.7327 15.2534Z"/>
</mask>
<path d="M12.7327 15.2534L12.1197 14.4632L12.1102 14.4707L12.7327 15.2534ZM3.26727 15.2534L3.8898 14.4707L3.88022 14.4633L3.26727 15.2534ZM7.38766 21.4102L8.37562 21.2555V21.2555L7.38766 21.4102ZM8.61234 21.4102L7.62438 21.2555V21.2555L8.61234 21.4102ZM13.3457 16.0435C15.5708 14.3174 17 11.5485 17 8.44444H15C15 10.9293 13.8574 13.1153 12.1198 14.4633L13.3457 16.0435ZM17 8.44444C17 3.28005 13.0208 -1 8 -1V1C11.8157 1 15 4.28136 15 8.44444H17ZM8 -1C2.97918 -1 -1 3.28005 -1 8.44444H1C1 4.28136 4.18426 1 8 1V-1ZM-1 8.44444C-1 11.5485 0.429246 14.3174 2.65432 16.0435L3.88022 14.4633C2.14264 13.1153 1 10.9293 1 8.44444H-1ZM8.37562 21.2555C7.83363 17.7944 5.42265 15.69 3.88976 14.4707L2.64478 16.036C4.13278 17.2195 5.98396 18.91 6.3997 21.5649L8.37562 21.2555ZM8 20.953C8.2259 20.953 8.354 21.1174 8.37562 21.2555L6.3997 21.5649C6.51697 22.3138 7.1559 22.953 8 22.953V20.953ZM7.62438 21.2555C7.646 21.1174 7.7741 20.953 8 20.953V22.953C8.8441 22.953 9.48304 22.3138 9.6003 21.5649L7.62438 21.2555ZM12.1102 14.4707C10.5773 15.69 8.16638 17.7944 7.62438 21.2555L9.6003 21.5649C10.016 18.91 11.8672 17.2195 13.3552 16.036L12.1102 14.4707Z" fill="#A7A7A7" mask="url(#path-1-inside-1)"/>
</svg>
