<svg viewBox="0 0 14 14" fill="none" xmlns="http://www.w3.org/2000/svg">
<path fill-rule="evenodd" clip-rule="evenodd" d="M10.4999 4.95833H9.91658V3.79167C9.91658 2.18167 8.60992 0.875 6.99992 0.875C5.38992 0.875 4.08325 2.18167 4.08325 3.79167H5.24992C5.24992 2.82333 6.03158 2.04167 6.99992 2.04167C7.96825 2.04167 8.74992 2.82333 8.74992 3.79167V4.95833H3.49992C2.85825 4.95833 2.33325 5.48333 2.33325 6.125V11.9583C2.33325 12.6 2.85825 13.125 3.49992 13.125H10.4999C11.1416 13.125 11.6666 12.6 11.6666 11.9583V6.125C11.6666 5.48333 11.1416 4.95833 10.4999 4.95833ZM3.49992 11.9583V6.125H10.4999V11.9583H3.49992ZM8.16658 9.04167C8.16658 9.68333 7.64158 10.2083 6.99992 10.2083C6.35825 10.2083 5.83325 9.68333 5.83325 9.04167C5.83325 8.4 6.35825 7.875 6.99992 7.875C7.64158 7.875 8.16658 8.4 8.16658 9.04167Z" fill="black" fill-opacity="0.54"/>
</svg>
